<?xml version="1.0" standalone="no"?>
<!DOCTYPE svg PUBLIC "-//W3C//DTD SVG 20010904//EN"
 "http://www.w3.org/TR/2001/REC-SVG-20010904/DTD/svg10.dtd">
<svg version="1.0" xmlns="http://www.w3.org/2000/svg"
 width="700.000000pt" height="700.000000pt" viewBox="0 0 700.000000 700.000000"
 preserveAspectRatio="xMidYMid meet">
<metadata>
Created by potrace 1.14, written by Peter Selinger 2001-2017
</metadata>
<g transform="translate(0.000000,700.000000) scale(0.100000,-0.100000)"
fill="#000000" stroke="none">
<path d="M3077 6434 c-1 -1 -27 -4 -57 -7 -65 -7 -194 -25 -224 -32 -12 -2
-38 -7 -58 -10 -81 -11 -299 -57 -407 -86 -484 -128 -687 -287 -786 -612 -14
-48 -28 -98 -31 -110 -2 -12 -6 -33 -9 -47 -9 -38 -13 -61 -20 -105 -3 -22 -8
-53 -10 -70 -9 -53 -14 -119 -20 -276 -7 -173 -11 -231 -25 -339 -5 -41 -12
-104 -15 -140 -9 -119 -17 -164 -46 -290 -36 -151 -40 -276 -14 -420 2 -14 7
-53 10 -88 4 -35 8 -71 10 -80 1 -9 6 -53 10 -97 4 -44 8 -93 10 -110 2 -16 7
-64 10 -105 3 -41 8 -91 10 -110 2 -19 7 -82 10 -140 3 -58 8 -121 10 -140 4
-37 10 -95 21 -200 3 -36 8 -72 9 -81 2 -9 6 -40 10 -70 5 -45 24 -165 50
-321 28 -161 124 -545 182 -723 46 -144 135 -379 179 -473 13 -29 24 -55 24
-58 0 -2 25 -55 56 -117 79 -155 87 -171 96 -182 4 -5 31 -46 60 -90 65 -99
176 -212 244 -248 87 -46 165 -56 389 -53 110 2 225 8 255 14 30 7 71 14 90
17 19 3 53 11 75 16 22 6 47 12 55 14 8 2 35 8 60 15 25 7 56 14 68 16 44 8
311 94 388 125 43 16 112 48 154 70 65 33 86 50 129 107 28 37 76 94 106 127
90 96 107 116 171 195 198 246 332 494 466 864 44 122 97 281 103 309 24 111
143 449 156 441 8 -4 3 -72 -6 -102 -9 -27 -19 -288 -19 -520 0 -226 2 -244
20 -269 11 -15 27 -31 36 -37 25 -15 55 17 63 67 4 23 9 49 10 57 3 14 12 113
20 210 2 25 6 79 10 120 7 90 14 159 20 220 3 25 7 74 10 109 9 96 22 157 44
198 27 50 33 57 120 133 67 58 95 86 153 153 101 115 158 295 158 499 0 148
-12 196 -100 383 -29 62 -57 147 -64 190 -3 22 -20 67 -37 100 -18 34 -27 61
-21 63 39 13 159 125 220 206 22 28 69 122 86 171 28 80 30 348 2 450 -48 180
-146 334 -323 510 -96 96 -154 137 -225 161 -94 31 -140 -2 -194 -135 -31 -77
-41 -130 -39 -208 3 -70 12 -86 67 -114 65 -33 103 -8 137 92 l17 50 29 -29
c217 -210 306 -356 320 -518 10 -122 -20 -228 -101 -355 -74 -116 -79 -130
-144 -347 -25 -81 -61 -134 -80 -116 -6 7 -13 36 -15 65 -9 137 -51 173 -120
102 -20 -20 -78 -105 -130 -188 -121 -195 -133 -209 -152 -193 -14 11 -15 39
-10 203 4 104 9 206 11 225 3 19 7 67 11 105 3 39 8 81 10 95 2 14 7 48 10 75
3 28 8 61 10 75 3 14 7 41 9 60 9 73 38 228 58 305 11 44 22 91 25 105 2 14 8
41 12 60 12 53 5 117 -18 153 -32 52 -207 147 -426 232 -141 54 -232 77 -323
81 -79 3 -116 -7 -147 -43 -51 -56 -121 -44 -302 53 l-104 55 -292 -1 c-161
-1 -323 -3 -362 -4 -115 -6 -289 -18 -310 -22 -11 -2 -40 -7 -65 -10 -115 -15
-517 -110 -552 -131 -5 -2 -8 0 -8 6 0 6 30 36 68 67 90 75 297 174 413 198
13 3 35 7 49 10 14 3 36 8 50 11 63 13 462 21 575 11 81 -7 281 -20 320 -20
161 0 334 31 390 70 11 8 28 14 38 14 48 0 0 29 -109 65 -65 22 -129 46 -141
53 -30 17 -48 51 -34 65 14 14 128 10 226 -8 203 -38 393 -88 710 -190 300
-96 359 -108 400 -78 33 24 31 55 -7 98 -52 59 -279 198 -265 162 10 -25 -3
-27 -57 -6 -173 67 -495 166 -591 183 -16 3 -41 7 -55 11 -14 3 -38 8 -55 10
-16 3 -57 10 -90 16 -33 6 -71 13 -85 15 -14 3 -47 9 -75 14 -106 21 -286 34
-535 40 -63 2 -64 2 -35 15 17 8 26 15 20 16 -19 2 -85 5 -88 3z m433 -311
c10 -9 -23 -20 -46 -15 -24 4 -30 13 -18 25 7 6 54 -1 64 -10z m-1456 -194
c-33 -36 -108 -89 -123 -89 -18 0 -12 28 12 53 29 32 124 81 136 71 3 -3 -9
-18 -25 -35z m1853 -441 c7 -6 13 -20 13 -32 0 -41 27 -60 105 -70 164 -23
603 -162 636 -202 11 -13 9 -80 -5 -164 -33 -192 -49 -468 -49 -860 -1 -307
14 -399 75 -487 37 -53 39 -60 38 -122 -1 -36 -2 -71 -1 -78 0 -6 22 -15 47
-19 53 -8 67 -30 59 -97 -3 -23 -7 -58 -10 -77 -2 -19 -7 -60 -10 -90 -4 -30
-9 -68 -11 -85 -3 -16 -7 -48 -9 -70 -3 -22 -7 -51 -10 -65 -2 -14 -7 -41 -10
-60 -75 -483 -215 -960 -382 -1295 -148 -299 -299 -476 -566 -669 -196 -140
-281 -176 -532 -222 -214 -40 -417 -62 -530 -58 -134 4 -219 44 -323 154 -90
93 -161 210 -262 434 -100 222 -280 785 -335 1046 -49 235 -57 276 -69 358 -3
15 -7 45 -11 67 -3 22 -8 55 -10 73 -2 18 -6 49 -9 70 -8 58 -23 280 -31 467
l-6 130 52 -75 c71 -102 159 -191 222 -226 117 -64 306 -28 477 90 153 106
280 315 297 488 l5 58 -46 42 -46 43 -6 89 c-7 109 -31 167 -87 207 -48 35
-103 51 -177 52 -169 2 -275 -33 -490 -159 -177 -103 -195 -110 -216 -76 -15
23 -20 44 -59 267 -13 77 -27 151 -31 165 -23 94 -23 118 -5 245 19 126 51
235 86 295 18 30 43 86 55 123 25 78 56 107 168 159 126 58 372 123 577 153
22 4 47 8 55 10 8 2 40 7 70 10 30 3 82 10 115 15 33 5 92 12 130 15 39 4 86
8 105 10 19 2 76 6 125 10 50 3 110 8 135 10 25 2 144 7 265 10 121 4 221 8
222 9 7 7 200 -7 210 -16z m-1572 -1527 c28 -16 77 -53 110 -82 33 -30 73 -64
89 -77 31 -24 30 -33 -9 -86 -22 -29 -40 -14 -89 77 -62 114 -81 133 -142 141
-110 15 -125 23 -81 44 37 18 69 13 122 -17z m-327 -106 c8 -150 40 -248 91
-278 57 -34 102 -15 116 48 13 59 15 62 31 41 28 -39 5 -118 -38 -132 -38 -12
-104 -5 -162 16 -55 21 -101 60 -192 163 l-51 57 -59 0 c-55 1 -58 2 -39 16
55 43 253 127 285 121 10 -1 16 -17 18 -52z m168 -3 c6 -4 16 -17 22 -29 10
-17 9 -22 -5 -28 -20 -7 -43 18 -43 47 0 19 8 22 26 10z m3082 -117 c33 -24
80 -98 108 -171 46 -123 49 -225 9 -321 -36 -86 -99 -134 -204 -153 -30 -6
-63 -18 -73 -27 -16 -15 -21 -15 -28 -3 -5 8 -7 30 -5 50 3 19 7 62 10 95 4
53 36 258 50 325 3 14 7 34 9 45 9 45 31 111 45 135 27 44 44 49 79 25z"/>
<path d="M3584 4890 c-102 -14 -295 -193 -363 -334 -57 -121 -63 -183 -20
-207 27 -14 82 19 174 105 39 35 95 79 125 98 83 51 153 47 390 -22 229 -66
274 -69 350 -20 59 38 110 101 110 136 0 69 -214 176 -469 234 -58 14 -231 19
-297 10z"/>
<path d="M2262 4611 c-121 -45 -256 -153 -303 -243 -19 -37 -27 -118 -11 -118
5 0 69 18 142 40 147 44 207 49 305 25 101 -24 149 -20 190 16 49 43 66 81 67
145 1 51 -1 58 -31 84 -74 62 -257 89 -359 51z"/>
<path d="M3502 4305 c-107 -33 -233 -176 -295 -333 -76 -196 -90 -336 -44
-435 46 -99 150 -191 269 -238 97 -38 281 -33 380 11 92 40 258 182 292 249
31 59 47 123 34 138 -14 17 -26 13 -187 -64 -191 -93 -270 -113 -289 -75 -17
32 21 144 84 243 12 20 27 54 33 77 6 22 19 50 29 61 17 21 17 21 87 -45 79
-74 112 -92 156 -86 l31 5 -6 66 c-9 105 -38 175 -98 241 -118 130 -355 222
-476 185z m113 -189 c19 -8 35 -19 35 -24 0 -11 -35 -28 -73 -37 -38 -8 -82
-79 -113 -185 -32 -109 -44 -140 -55 -140 -20 0 -29 112 -14 180 18 82 81 169
150 204 36 19 29 19 70 2z"/>
<path d="M2801 3331 c-33 -31 -56 -78 -103 -211 -103 -292 -120 -397 -122
-755 -2 -263 6 -321 44 -364 31 -33 32 -33 135 -15 57 9 75 9 120 -4 67 -19
125 -23 166 -11 56 17 106 63 121 111 12 39 11 41 -18 64 -31 26 -168 89 -304
140 -47 18 -91 42 -99 53 -11 17 -11 38 -2 119 15 126 17 137 48 252 23 90 34
123 84 258 59 155 56 335 -4 377 -28 20 -30 20 -66 -14z"/>
<path d="M3548 2212 c-48 -10 -87 -148 -58 -203 6 -10 57 -41 114 -69 141 -69
162 -96 54 -71 -44 10 -76 -2 -197 -79 -132 -82 -210 -117 -296 -134 -44 -8
-87 -15 -95 -15 -31 0 -196 -12 -225 -16 -35 -4 -79 -52 -96 -102 -14 -44 -8
-57 41 -89 37 -24 50 -27 128 -28 225 0 343 27 497 115 117 67 111 66 125 24
19 -59 14 -150 -13 -209 -31 -67 -128 -163 -203 -201 -52 -26 -70 -30 -144
-30 -70 0 -93 4 -128 23 -61 32 -118 88 -177 171 -27 38 -58 72 -67 74 -36 10
-51 -36 -50 -153 0 -108 15 -143 98 -228 139 -140 304 -163 509 -71 134 60
288 200 342 310 31 65 58 164 68 254 3 28 8 70 11 95 7 62 23 82 82 103 42 14
52 23 61 50 21 61 -2 164 -56 257 -35 59 -138 162 -190 189 -46 23 -109 39
-135 33z"/>
</g>
</svg>
