<?xml version="1.0" standalone="no"?>
<!DOCTYPE svg PUBLIC "-//W3C//DTD SVG 20010904//EN"
 "http://www.w3.org/TR/2001/REC-SVG-20010904/DTD/svg10.dtd">
<svg version="1.0" xmlns="http://www.w3.org/2000/svg"
 width="605.000000pt" height="605.000000pt" viewBox="0 0 605.000000 605.000000"
 preserveAspectRatio="xMidYMid meet">
<metadata>
Created by potrace 1.14, written by Peter Selinger 2001-2017
</metadata>
<g transform="translate(0.000000 605.000000) scale(0.100000 -0.100000)"
fill="#000000" stroke="none">
<path d="M1030 4879 c0 -9 1889 -3781 1901 -3795 6 -8 9 -14 5 -14 -5 0 78
-165 90 -178 2 -4 46 75 49 88 2 6 82 168 94 190 5 8 20 38 33 65 12 28 26 52
31 53 4 2 7 9 7 15 0 11 60 137 70 147 3 3 19 34 36 70 27 54 159 319 185 370
4 8 27 56 51 105 24 50 46 92 51 93 4 2 7 12 7 23 0 10 4 19 10 19 5 0 9 3 8
8 -1 4 25 59 57 122 33 63 62 122 65 130 3 8 228 458 500 1000 272 542 496
992 499 1000 2 8 6 17 10 20 3 3 58 111 122 240 l116 235 -1998 0 c-1100 0
-1999 -2 -1999 -6z"/>
</g>
</svg>
